<?xml version="1.0" encoding="UTF-8"?>
<!DOCTYPE svg PUBLIC "-//W3C//DTD SVG 1.1//EN" "http://www.w3.org/Graphics/SVG/1.1/DTD/svg11.dtd">
<!-- Creator: CorelDRAW 2019 (64-Bit) -->
<svg xmlns="http://www.w3.org/2000/svg" xml:space="preserve" height="1200px" version="1.1" style="shape-rendering:geometricPrecision; text-rendering:geometricPrecision; image-rendering:optimizeQuality; fill-rule:evenodd; clip-rule:evenodd"
viewBox="0 3000 21000 29700"
 xmlns:xlink="http://www.w3.org/1999/xlink"
 xmlns:xodm="http://www.corel.com/coreldraw/odm/2003">
 <defs>
  <style type="text/css">
   <![CDATA[
    .fil0 {fill:#0C0C11}
   ]]>
  </style>
 </defs>
 <g id="Слой_x0020_1">
  <metadata id="CorelCorpID_0Corel-Layer"/>
  <path class="fil0" d="M25730.96 3456.94c-59.8,141.31 -57.21,392.76 -194,408.38 -252.36,28.82 37.71,486.44 -147.49,463.73 -81.91,-10.04 -571.01,-11.13 -639.8,12.27 -487.42,152.06 -57.04,575.43 -100.18,672.09 -89.85,201.36 -87.34,10.41 -93.93,348.86 -0.87,44.39 -133.94,41.11 -211.67,127.21 -120.17,133.11 -108.1,161.44 -283.02,110.72 -216.79,-62.86 91.36,501.43 -204.93,625.74 -327.26,137.31 -144.82,535.83 -660.58,557 -671.38,27.56 -264.72,213.04 -607.83,231.43 -438.37,23.5 -358.64,205.63 -741.19,390.28 -299.46,144.55 -515.13,270.11 -854.26,182.34 -96.13,42.86 -232.33,112.7 -333.42,137.62 -103.1,25.41 -164.28,-46.93 -319.58,-60.76 -130.72,7.6 -144.75,31 -182.01,164.63 -60.05,254.45 -59.25,252.03 -284.28,384.48 -112.96,66.49 -294.29,179.96 -401.02,231.98 -389.21,189.7 -411.94,179.6 -761.09,473.3 -431.66,482.95 -867.94,568.77 -1343.44,1017.86l-948.46 582.61c-171.26,68.74 -347.35,85.7 -528.82,167.82 -225.07,101.86 -192.24,134.71 -475.38,200.18 -1608.85,372.03 -1226.12,592.94 -2087.01,1184.85 -273.29,187.9 -441.81,484.89 -748.66,626.11 -213.67,98.33 -296.58,68.03 -483.85,261.22 -147.84,152.5 -178.37,238.62 -385.88,353.3 -200.15,110.6 -260.75,112.76 -441.91,279.69 -470.8,433.84 -448.06,-391.7 -823.23,-123.34 -452.34,323.56 -577.88,97.17 -627.27,306.67 -45.27,192 486.49,676.79 -689.26,513.25 -510.19,-70.96 -1217.06,148.28 -1844.7,-108.49 -149.93,-61.33 -297.89,-103.84 -447.89,-168.43 -165.35,-71.2 -233.84,-170.64 -410.28,-235.6 -461.75,-170.01 -611.03,-149.12 -1031.46,-465.22l-106.38 -36.96c-201.47,-24.46 -319.05,-11.15 -524.54,-56.02 -130.48,-28.49 -221.7,-81.95 -330.22,-36.23 -510.2,214.96 -883.3,-156.98 -1072.05,-183.04 -1101.54,-152.04 113.63,657.81 -850.8,330.02 -124.16,-42.2 -213,-128.4 -328.3,-159.95 -149.4,-40.88 -263.76,14.39 -398.76,-54.09 -170.67,-86.57 -52.88,-278.12 -276.56,-442.4 -141.87,-104.2 -122.03,-286.16 -370.06,-230.84 -135.43,30.2 304.9,357.71 -309.49,255.93 -198.3,-32.85 -1082.34,-448.92 -1206.28,-525.19 -150.06,-92.33 -176.59,-157.39 -349.32,-40.02 -142.59,96.89 -169.99,104.37 -293.4,-39.27 -64.49,-75.07 -255.36,-283.92 -287.78,-349.76 -178.37,-362.21 -67.85,-424.36 -495.85,-683.43 -1207.29,-730.79 -554.25,-356.32 -993.18,-727.87 -68.72,-58.17 -120.44,-18.4 -191.13,-131.03 -100.44,-160.04 -49.06,-87.3 -176.51,-226.99 -60.49,-66.3 70.32,-101.78 -58.05,-101.4 -319.92,0.95 -657.51,6 -888.21,-241.07 -92.62,-28.71 -459.08,-276.27 -577.01,-346.09 -197.97,-117.22 -430.17,-189 -636.47,-315.9 -937.39,-576.55 -372.74,-406.36 -756.91,-655.75 -91.89,-59.64 -180.11,-120.69 -267.48,-186.01 -169.64,-126.89 -342.27,-258.84 -544.66,-331.77 54.13,194.06 196.11,115.55 139.54,264.5 -138.16,4.66 -91.62,-33.1 -216.01,-81.42l-78.79 157.28c-206.21,-15.79 -155.06,-188.54 -450.26,-6.58 -141.69,-169.68 -126.3,-36.63 -328.29,-144.67l-80.56 94.61 -63.02 -108.14 -211.18 9.43c-8.92,-125.39 36.58,-62.56 69.28,-196.94l-155.62 72.49c-53.94,-100.68 11.28,-7.53 -14.05,-91.05 -330.3,-15.64 -168.66,-43.38 -428.4,-160.75l-8.5 125.68c-83.89,-77.92 -56.29,-119.67 -161.32,-132.89 -119.48,-15.05 -123.73,44.99 -228.47,-22.99l218.73 -100.11 -42.36 -77.7c-92.59,19.6 -30.77,46.2 -139.74,30.12 -86.32,-12.74 -46.98,-40.78 -189.18,-53.17l0 13999.55 35277.78 0 0 -18104.22c-103.9,37.61 -229.09,90.37 -282.4,188.32z"/>
 </g>
</svg>
