<?xml version="1.0" encoding="UTF-8"?>
<!DOCTYPE svg PUBLIC "-//W3C//DTD SVG 1.1//EN" "http://www.w3.org/Graphics/SVG/1.1/DTD/svg11.dtd">
<!-- Creator: CorelDRAW 2019 (64-Bit) -->
<svg xmlns="http://www.w3.org/2000/svg" xml:space="preserve" height="1200px" version="1.1" style="shape-rendering:geometricPrecision; text-rendering:geometricPrecision; image-rendering:optimizeQuality; fill-rule:evenodd; clip-rule:evenodd"
viewBox="0 3000 21000 29700"
 xmlns:xlink="http://www.w3.org/1999/xlink"
 xmlns:xodm="http://www.corel.com/coreldraw/odm/2003">
 <defs>
  <style type="text/css">
   <![CDATA[
    .fil6 {fill:#3B1A15}
    .fil2 {fill:#5C2314}
    .fil0 {fill:#8C5C12}
    .fil4 {fill:#9B7419}
    .fil3 {fill:#AE8C31}
    .fil8 {fill:#B1934A}
    .fil7 {fill:#CAB070}
    .fil5 {fill:#DBD6D7}
    .fil1 {fill:#EDE9E5}
   ]]>
  </style>
 </defs>
 <g id="Слой_x0020_1">
  <metadata id="CorelCorpID_0Corel-Layer"/>
  <path class="fil0" d="M6369.59 11836.43c-110.59,74.87 -488.45,96.28 -667.58,162.05 -190.61,69.99 -387.08,130.54 -576.97,202.32 98.27,67.8 138.28,26.38 264.56,0.44l68.3 76.15c101.51,-35.47 127.9,-65.66 220.11,-4.74l-239.54 129.82c171.98,23.62 115.5,-52.51 328.27,24.14 -57.85,99.14 -155.28,-25.65 -383.18,146.17l-12.89 153.65c-120.41,-71.15 -12.56,-35.51 -111.87,-169.71l-121.15 50.01c72.18,123.89 85.69,-9.31 78.42,136.87 -101.91,61.44 -84.91,24.69 -183.03,61.87 -86.95,32.96 -60.15,44.82 -150.68,82.94l1.34 53.46c354.21,14.65 729.8,112.11 1027.29,118.06 306.46,6.14 687.52,-126.02 946.4,-126.65 473.78,-1.15 1153.58,-325.05 1604.98,-501.48 701.63,-274.24 1565.91,-326.33 1703.87,-413.04 191.38,-120.28 543.05,-203.32 766.99,-325.58 235.95,-128.82 296.61,-64.57 912.36,-316l2336.24 96.52 2315.23 -81.79 2775.16 -526.79 338.45 -172.98c-86.83,-91.7 -7802.82,310.84 -7963.63,336.59 -186.42,29.85 -405.17,176.99 -421.53,187.38 -153.52,97.49 -239.78,12.59 -148.18,-159.93l96.16 57.1c55.09,-104.63 23.13,-106.61 41.49,-157.14 25.3,-69.66 154.66,-160.64 184.83,-266.43 -126.89,-187.13 -160.44,-37.52 -333.79,-154.7 -622.16,44.09 -1470.41,460.57 -2393.05,622.24 -941.27,164.94 -841.7,422.16 -1719.82,540.09 -234.13,31.44 -364.64,89.24 -583.56,139.09z"/>
  <path class="fil1" d="M-9264.42 5499.44c676.46,94.36 323.36,135.87 550.67,364.6 112.49,113.2 129.54,175.53 318.15,265.21 53.16,25.28 273.96,11.14 189.32,249.13 -146.34,64.38 -372.88,46.48 -521.03,-7.85l-94.52 193.84 89.64 75.94c-115.88,66.14 -79.63,5.22 -131.03,130.33 270.97,133.32 698.02,478.15 966.29,511.83 244.39,30.68 811.86,349.03 1000.71,513.12 202.39,72.93 375.02,204.88 544.66,331.77 488.27,220.35 635.53,111.43 1146.68,103.04 386.72,-6.35 573.92,-185.03 114.52,-344.19 -389.33,-134.88 411.2,-67.44 537.03,-72.23 144.68,-5.49 418.87,20.85 532.81,-15.35 168.73,-53.62 210.92,-222.87 -5.38,-259.94 -332.53,-57 -928.79,120.59 -1403.98,47.11 -256.66,-39.68 -1065.67,-79.85 -1195.35,-312.29 -57.77,-103.53 189.47,-166.48 190.46,-204.85 2.13,-82.39 -344.13,-92.95 -412.84,-71.67 -195.71,60.64 -162.03,100.5 -409.45,68 -2087.4,-274.16 243.43,-410.55 775.68,-364.46 194.47,16.84 463.04,100.62 645.17,57.25 255.39,-60.81 48.9,-168.41 -118.73,-176.3 -51.73,-2.43 -417.7,0.48 -352.94,-109.88 147.59,-251.51 1040.46,-172.51 1308.94,-238.21 608.12,-148.81 -1464.24,-394.87 -1503.47,-393.8 -259.31,7.04 -432.89,23.56 -692.61,-42.84 -2108.54,-539.09 -907.15,-771.01 -2069.4,-1066.07l0 768.76z"/>
  <path class="fil1" d="M24496.59 4218.34c92.04,-47.4 501.11,-348.46 562.15,-417.09 193.56,-217.63 372.41,-326.96 672.22,-344.31 53.31,-97.95 178.5,-150.71 282.4,-188.32l0 -1721.88 -697.9 0 -41.95 264.12 -179.73 -66.66c-190.75,366.2 94.15,327.99 -403.5,345.31l11.31 115.02c-239.52,134.44 -575.74,51.72 -820.1,351.53 -133.89,164.28 -159.35,103.8 -344.19,153.15 -277.61,74.11 -127.35,-31.73 -336.21,-67.94 -51.07,28.81 -61.81,162.98 -22.64,188.65 48.04,31.48 53.58,-13.42 116.77,58.21 46.95,53.22 17.01,62.08 89.95,116.31 142.62,-79.57 172.91,-136.51 345.62,-109.01 51.98,8.28 225.45,30.94 248.33,66.62 -132.52,192.78 -301.4,-56.75 -384.76,85.02 -135.58,230.6 -23.37,402.55 -79.06,535.99 -225.91,116.24 -270.97,-4.55 -428.79,0.03 28.93,158.79 199.92,104.7 342.79,191.35 93.22,168.54 1.86,178.59 183.22,278.01 115.5,63.32 174.09,142.93 296.02,145.54 87.61,1.87 550.4,-43.67 588.05,20.35z"/>
  <path class="fil2" d="M4883.7 12941.87c-672.26,-118.51 -3590.98,-111 -4331.93,-167.75 -1477.94,-113.19 -1814.02,-1081.97 -3190.87,-1973.8 -818.09,-529.91 -1257.51,-433.2 -1413.43,-464.94 -402.84,-81.99 -1276.87,-398.45 -2015.59,-561.64 -1820.33,-402.15 -3196.3,-578.36 -3196.3,-578.36l0 7446.96 35277.78 677.34 0 -6895.06c-1100.66,-153.46 -5623.05,153.46 -8014.93,502.71 -2391.88,349.25 -2956.87,705.28 -4153.97,381 -1197.1,-324.28 -1362.5,139.25 -2031.31,65.66 2.56,-23.8 -178.45,39.93 -171.68,4.48l-11.32 -91.41c-615.75,251.43 -460.97,277.3 -696.92,406.12 -223.94,122.26 -575.61,205.3 -766.99,325.58 -137.96,86.71 -1002.24,138.8 -1703.87,413.04 -451.4,176.43 -1131.2,500.33 -1604.98,501.48 -258.88,0.63 -639.94,132.79 -946.4,126.65 -297.49,-5.95 -673.08,-103.41 -1027.29,-118.06z"/>
  <path class="fil3" d="M3600.94 12058.92c248.08,228.23 390.63,312.08 668.57,471.65 337.16,-0.88 525.97,-285.21 855.53,-329.77 189.89,-71.78 386.36,-132.33 576.97,-202.32 179.13,-65.77 556.99,-87.18 667.58,-162.05 -193.2,9.02 -353.41,-55.67 -551.31,-77.92 -203.41,-22.86 -334.88,30.19 -547.39,12.13 -312.62,-26.57 -840.7,-129.93 -1136.02,-98.04 -122.9,70.03 -336.96,11.6 -535.48,41.75 236.03,135.37 200.67,187.55 1.55,344.57z"/>
  <path class="fil4" d="M11066.02 10535.01c173.35,117.18 206.9,-32.43 333.79,154.7 -30.17,105.79 -159.53,196.77 -184.83,266.43 -18.36,50.53 13.6,52.51 -41.49,157.14l-96.16 -57.1c-91.6,172.52 -5.34,257.42 148.18,159.93 30.48,-19.36 215.43,-182.11 402.92,15.88 61.19,-18.48 -161.45,114.97 13.04,146.48 618.51,111.71 1656.28,4.5 1937.23,-57.65 34.91,20.03 1043.54,-152.91 1344.78,-232.42 325.29,-85.86 1779.61,-182.63 1988.94,-202.78 1480.61,-142.54 1813.69,-77.08 2178.92,-97.24 216.42,-21.18 282.73,-41.9 458.79,-90.91 13.79,-3.83 43.71,-14.61 59.06,-18.72 89.74,-24.04 -6094.16,-199.13 -6047.45,-247.26 -304.58,-97.01 -893,68.33 -1235.49,80.44 -336.38,11.9 -965.52,-93.76 -1260.23,23.08z"/>
  <path class="fil5" d="M-9264.42 6525.54c143.38,102.39 230.01,187.94 401.2,245.1 51.4,-125.11 15.15,-64.19 131.03,-130.33l-89.64 -75.94 94.52 -193.84c148.15,54.33 374.69,72.23 521.03,7.85 84.64,-237.99 -136.16,-223.85 -189.32,-249.13 -188.61,-89.68 -205.66,-152.01 -318.15,-265.21 -227.31,-228.73 125.79,-270.24 -550.67,-364.6l0 1026.1z"/>
  <path class="fil6" d="M5227.29 15770.76c-124.87,-146.52 -202.71,-124.45 -343.59,-246.56l-1.34 -53.46c-128.34,-39.61 -462.29,-325.86 -607.56,-426.63 -277.94,-159.57 -380.8,-164.05 -628.88,-392.28l-709.15 -577.23c-374.28,-187.23 -667.16,-410.42 -1060.85,-555.88 -260.78,-96.35 -296.31,-233.03 -578.72,-207.07 -257.21,23.65 -436.77,-13.1 -684.33,-76.46 -255.97,-18.98 -438.49,-85.52 -669.3,-106.53 -212.55,-19.36 -500,2.36 -684.91,-94.41 -481.11,-251.8 -953.11,-296.65 -1104.19,-414.92l-257.32 -48.58c-321.42,-64 -643.52,-166.29 -957.36,-209.09 -195.31,-26.63 -363.36,-46.2 -561.11,-55.83 -165.94,-8.07 -295.85,-70.79 -492.37,-92.39 -92.62,-28.71 -459.08,-276.27 -577.01,-346.09 -197.97,-117.22 -430.17,-189 -636.47,-315.9 -937.39,-576.55 -372.74,-406.36 -756.91,-655.75 -91.89,-59.64 -180.11,-120.69 -267.48,-186.01 -169.64,-126.89 -342.27,-258.84 -544.66,-331.77 -188.85,-164.09 -756.32,-482.44 -1000.71,-513.12 -268.27,-33.68 -695.32,-378.51 -966.29,-511.83 -171.19,-57.16 -257.82,-142.71 -401.2,-245.1l0 847.75 0 7616.03 35277.78 0 0 -11720.7c-261.2,94.55 -782.92,339.57 -954.62,532.63 -61.04,68.63 -470.11,369.69 -562.15,417.09 -531,433.43 -694.7,430.02 -920.05,606.54 -159.32,124.79 9.29,122.31 -347.83,426.39 -164.78,140.3 -69.52,18.26 -174.63,214.2 -62.84,117.17 -104.28,134.73 -227.17,156.49 -114.27,132.52 -144.49,285.44 -220.54,445.99 49.09,228.06 93.11,164.01 96.66,435.44 -124.77,113.51 -928.37,324.3 -1134.49,370.83 -354.71,271.05 -952.33,413.25 -1229.46,789.63 -130.72,7.6 -144.75,31 -182.01,164.63 -314.41,97.38 -435.3,176.2 -700.18,355.01l-1376.49 740.19c-306.88,114.72 -582.76,80.86 -859.24,196.86l-1590.44 528.92c-175.75,23.78 -306.46,-83.98 -806.81,180.43 -111.26,58.79 -238.77,124.9 -349.8,180.51 -176.77,88.53 -253.69,19.44 -343.52,200.61l-568.85 220.48c-101.36,104.42 -357.81,79.88 -553.72,162.74 -242.89,102.72 -268.57,96.39 -519.74,151.95 -360.22,79.69 -581.78,401.81 -859.85,485.81l1.72 55.07 -311.47 218.41c-60.53,316.89 82.69,111.74 -201.92,397.38 -215.47,-104.09 -251.58,101.24 -338.88,301.54 -82.84,190.05 90.26,356.06 34.54,601.86l-180 14.66 -59.24 -95.53c-210.11,-188.58 -472.4,-36.27 -880.36,60.49 -103.75,24.6 -197.28,88.25 -304.81,111 -219.79,46.52 -525.33,59.17 -735.68,115.34 -645.69,172.44 -590.42,112.22 -1259.24,355.28 -372.29,135.3 -188.33,-100.67 -649.47,-17.26 -202.46,36.61 -509.85,187.48 -654.87,170.8 -191.76,-22.05 -453.08,-178.84 -695.57,-210.31l-106.38 -36.96 -59.51 -85.33z"/>
  <path class="fil1" d="M21568.54 6874.22c206.12,-46.53 1009.72,-257.32 1134.49,-370.83 -3.55,-271.43 -47.57,-207.38 -96.66,-435.44 76.05,-160.55 106.27,-313.47 220.54,-445.99 -185.38,-136.81 -166.89,145.76 -192.79,250.12l-117.79 -48.47c27.32,185.33 -41.38,115.46 -7.09,293.73 20.51,106.64 101.74,225.08 -41.09,275.71l-41.72 -380.2 -142.85 144.31c-487.9,-35.33 -254.59,160.84 -468.28,-5.97l-54.01 116.08 -140.54 -84.02c-102.28,40.11 -132.08,38.98 -189.67,122 101.09,69.05 53.63,48.91 173.75,-20.63l24.67 130.19c145.87,54.06 200.2,30.01 261.28,140.08 -115.21,94.59 -475.68,111.23 -322.24,319.33z"/>
  <path class="fil4" d="M5125.04 12200.8c-329.56,44.56 -513.08,260.1 -850.24,260.98 145.27,100.77 479.22,387.02 607.56,426.63 90.53,-38.12 63.73,-49.98 150.68,-82.94 98.12,-37.18 81.12,-0.43 183.03,-61.87 7.27,-146.18 -6.24,-12.98 -78.42,-136.87l121.15 -50.01c99.31,134.2 -8.54,98.56 111.87,169.71l12.89 -153.65c227.9,-171.82 325.33,-47.03 383.18,-146.17 -212.77,-76.65 -156.29,-0.52 -328.27,-24.14l239.54 -129.82c-92.21,-60.92 -118.6,-30.73 -220.11,4.74l-68.3 -76.15c-126.28,25.94 -166.29,67.36 -264.56,-0.44z"/>
  <path class="fil7" d="M612.87 10652.86c-163.7,-130.47 -878.32,-369.12 -1111.03,-439.78 -459.8,-139.6 -875.64,-144.56 -1347.37,-176.08 151.08,118.27 623.08,163.12 1104.19,414.92 184.91,96.77 472.36,75.05 684.91,94.41 230.81,21.01 413.33,87.55 669.3,106.53z"/>
  <path class="fil5" d="M18560.07 7826.36c-182.46,261.42 -434.41,55.87 -476.22,275.66 94.95,56.21 375.04,23.86 504.49,17.12 124.44,-10.21 96.57,-25.09 182.88,-49.05 121.15,-33.65 99.11,7.4 214.83,-7.85 65.62,-8.66 135.01,-46.55 203.01,-68.44 146.23,-47.08 123.69,14.92 164.99,-126.37 -150.73,-213.6 -568.57,-62.1 -793.98,-41.07z"/>
  <path class="fil8" d="M3644.37 11724.93c198.52,-30.15 412.58,28.28 535.48,-41.75 -269.92,-172.12 -901.89,-112.5 -1243.08,-190.91l-2323.9 -839.41 -2458.4 -615.86c-1338.37,-73.56 -1338.37,-73.56 -1338.37,-73.56l-5936.1 -748.38 3648.57 1257.5c1491.36,293.44 1867.43,1235.64 3422.3,1687.82l2150.35 636.82 4903.59 138.54 -1112.28 -713.08c-73.28,-106.29 -178.72,-115.14 -201.63,-150.52 -30.67,-47.37 312.8,-155.33 -46.53,-347.21z"/>
  <path class="fil1" d="M18588.34 8119.14c-129.45,6.74 -409.54,39.09 -504.49,-17.12 41.81,-219.79 293.76,-14.24 476.22,-275.66l-861.61 40.41c-50.33,145.83 -41.37,200.74 6.87,333.05 147.42,11.35 28.21,-42.6 147.41,-0.25 100.24,35.62 92.76,58.27 215.58,51.05 414.54,-24.35 420.54,-1.04 520.02,-131.48z"/>
 </g>
</svg>
