<?xml version="1.0" encoding="UTF-8"?>
<!DOCTYPE svg PUBLIC "-//W3C//DTD SVG 1.1//EN" "http://www.w3.org/Graphics/SVG/1.1/DTD/svg11.dtd">
<!-- Creator: CorelDRAW 2019 (64-Bit) -->
<svg xmlns="http://www.w3.org/2000/svg" xml:space="preserve" height="1200px" version="1.1" style="shape-rendering:geometricPrecision; text-rendering:geometricPrecision; image-rendering:optimizeQuality; fill-rule:evenodd; clip-rule:evenodd"
viewBox="0 3000 21000 29700"
 xmlns:xlink="http://www.w3.org/1999/xlink"
 xmlns:xodm="http://www.corel.com/coreldraw/odm/2003">
 <defs>
  <style type="text/css">
   <![CDATA[
    .fil2 {fill:#241515}
    .fil0 {fill:#3A1913}
    .fil1 {fill:#5C2211}
   ]]>
  </style>
 </defs>
 <g id="Слой_x0020_1">
  <metadata id="CorelCorpID_0Corel-Layer"/>
  <path class="fil0" d="M5227.29 13188.43c-124.87,-146.52 -202.71,-124.45 -343.59,-246.56l-1.34 -53.46c-128.34,-39.61 -462.29,-325.86 -607.56,-426.63 -277.94,-159.57 -380.8,-164.05 -628.88,-392.28l-709.15 -577.23c-374.28,-187.23 -667.16,-410.42 -1060.85,-555.88 -260.78,-96.35 -296.31,-233.03 -578.72,-207.07 -257.21,23.65 -436.77,-13.1 -684.33,-76.46 -255.97,-18.98 -438.49,-85.52 -669.3,-106.53 -212.55,-19.36 -500,2.36 -684.91,-94.41 -481.11,-251.8 -953.11,-296.65 -1104.19,-414.92l-257.32 -48.58c197.68,330.96 566.33,161.06 674.34,312.46 -77,118.36 -233.99,64.13 -270.88,141.28 459.77,208.51 673.05,-254.54 809.14,283.57 29.55,116.84 330.09,189.89 332.19,449.64 0.45,55.22 -42.22,77.89 -7.31,77.71 225.51,-6.73 759.64,52.53 979.5,110.57 376.74,99.46 451.58,-86.04 855,86.18 140.04,59.79 274.44,224.24 276.68,224.91 0.98,0.3 389.03,-203.04 472.35,-69.74 194.84,311.72 88.37,94.4 314.8,252.27 98.98,69.01 71.59,90.79 234.45,178.53 141.96,76.48 273.59,117.58 416.4,183.12 152.32,69.9 652.8,270.1 738.84,369.51 198.93,229.85 99.03,106.68 344.97,235.84 152.51,80.09 160.41,131.76 348.28,146.78 327.7,26.21 483.43,138.2 811.39,217.38z"/>
  <path class="fil1" d="M14130.59 10211.01l135.09 -5.97c180.73,-37.54 593.44,-148.67 729.17,-247.85 229.83,-199.47 439.88,13.63 691.17,-41.54 641.48,-140.86 163.81,29.84 939.35,-224.55 119.57,-39.23 274.16,-60.35 362.5,-97.5 140.51,-59.08 499.28,-254.18 614.21,-232.52 502.81,29.37 418.05,-93.9 556.97,-180.33 85.8,-53.38 190.01,-70.1 283.15,-106.22 140.96,-54.67 127.01,-95.45 268.48,-156.29 349.15,-293.7 371.88,-283.6 761.09,-473.3 106.73,-52.02 288.06,-165.49 401.02,-231.98 225.03,-132.45 224.23,-130.03 284.28,-384.48 -314.41,97.38 -435.3,176.2 -700.18,355.01l-1376.49 740.19c-306.88,114.72 -582.76,80.86 -859.24,196.86l-1590.44 528.92c-175.75,23.78 -306.46,-83.98 -806.81,180.43 -111.26,58.79 -238.77,124.9 -349.8,180.51 -176.77,88.53 -253.69,19.44 -343.52,200.61z"/>
  <path class="fil2" d="M20992.08 7586.99c-96.13,42.86 -232.33,112.7 -333.42,137.62 -103.1,25.41 -164.28,-46.93 -319.58,-60.76 -130.72,7.6 -144.75,31 -182.01,164.63 -60.05,254.45 -59.25,252.03 -284.28,384.48 -112.96,66.49 -294.29,179.96 -401.02,231.98 -389.21,189.7 -411.94,179.6 -761.09,473.3 -141.47,60.84 -127.52,101.62 -268.48,156.29 -93.14,36.12 -197.35,52.84 -283.15,106.22 -138.92,86.43 -54.16,209.7 -556.97,180.33 -145.11,378.12 -419.92,313.91 -606.45,453.26 -120.32,89.88 -101.26,71.25 -258.03,47.28 -98.47,173.83 35.8,69.82 -155.18,178.77 -167.44,95.52 -694.77,227.71 -824.12,213.27 -164.99,-225.53 113.6,-243.95 -686.25,-222.51l-77.2 -73.96c-135.73,99.18 -548.44,210.31 -729.17,247.85 -140.28,216.33 -420.44,278.27 -655.92,327.8 -498.03,104.77 -254.66,238.17 -442.58,362.03 -185.98,122.58 -370.07,245.34 -595.22,285.66 -203.6,36.47 -372.05,258.67 -595.26,276.64 -52.04,-77.62 -71.78,-86.51 8.63,-148.06 -56.07,28.79 -119.53,19.41 -131.25,47.62 -9.77,23.53 17.64,102.33 -38.64,186.35 -68.83,102.75 -116.14,53.15 -156.45,181.87 -43.01,137.33 -5.41,134.26 -92.45,281.34 -161.73,79.78 -375.58,113.19 -543.17,30.54 -6.56,68.8 29.05,369.89 16.59,437.24 -25.29,136.79 -97.81,89.97 -94.35,277.42 1.02,55.38 130.23,413.25 -256.8,237.57l-56.39 -168.15 -59.24 -95.53c-210.11,-188.58 -472.4,-36.27 -880.36,60.49 -103.75,24.6 -197.28,88.25 -304.81,111 -219.79,46.52 -525.33,59.17 -735.68,115.34 -645.69,172.44 -590.42,112.22 -1259.24,355.28 -372.29,135.3 -188.33,-100.67 -649.47,-17.26 -202.46,36.61 -509.85,187.48 -654.87,170.8 -191.76,-22.05 -453.08,-178.84 -695.57,-210.31l-106.38 -36.96 -59.51 -85.33c-327.96,-79.18 -483.69,-191.17 -811.39,-217.38 -187.87,-15.02 -195.77,-66.69 -348.28,-146.78 -245.94,-129.16 -146.04,-5.99 -344.97,-235.84 -86.04,-99.41 -586.52,-299.61 -738.84,-369.51 -142.81,-65.54 -274.44,-106.64 -416.4,-183.12 -162.86,-87.74 -135.47,-109.52 -234.45,-178.53 -226.43,-157.87 -119.96,59.45 -314.8,-252.27 -83.32,-133.3 -471.37,70.04 -472.35,69.74 -2.24,-0.67 -136.64,-165.12 -276.68,-224.91 -403.42,-172.22 -478.26,13.28 -855,-86.18 -219.86,-58.04 -753.99,-117.3 -979.5,-110.57 -34.91,0.18 7.76,-22.49 7.31,-77.71 -2.1,-259.75 -302.64,-332.8 -332.19,-449.64 -136.09,-538.11 -349.37,-75.06 -809.14,-283.57 36.89,-77.15 193.88,-22.92 270.88,-141.28 -108.01,-151.4 -476.66,18.5 -674.34,-312.46 -321.42,-64 -643.52,-166.29 -957.36,-209.09 -195.31,-26.63 -363.36,-46.2 -561.11,-55.83 -165.94,-8.07 -295.85,-70.79 -492.37,-92.39 -92.62,-28.71 -459.08,-276.27 -577.01,-346.09 -197.97,-117.22 -430.17,-189 -636.47,-315.9 -937.39,-576.55 -372.74,-406.36 -756.91,-655.75 -91.89,-59.64 -180.11,-120.69 -267.48,-186.01 -169.64,-126.89 -342.27,-258.84 -544.66,-331.77 -188.85,-164.09 -756.32,-482.44 -1000.71,-513.12 -268.27,-33.68 -695.32,-378.51 -966.29,-511.83 -171.19,-57.16 -257.82,-142.71 -401.2,-245.1l0 847.75 0 10113.89 35277.78 0 0 -14218.56c-261.2,94.55 -782.92,339.57 -954.62,532.63 -61.04,68.63 -470.11,369.69 -562.15,417.09 -531,433.43 -694.7,430.02 -920.05,606.54 -159.32,124.79 9.29,122.31 -347.83,426.39 -164.78,140.3 -69.52,18.26 -174.63,214.2 -62.84,117.17 -104.28,134.73 -227.17,156.49 -114.27,132.52 -144.49,285.44 -220.54,445.99 180.93,118.38 224.49,496.16 85.21,624.69 -139.06,128.32 -253.49,34.7 -515.72,312.23 -59.3,62.76 -188.24,102.11 -265.72,132.33 -169.36,66.07 -132.45,111.6 -269.09,197.38 -245.43,154.08 -444.4,85.26 -648.97,252.41z"/>
  <path class="fil0" d="M13561.74 10431.49c-101.36,104.42 -357.81,79.88 -553.72,162.74 -242.89,102.72 -268.57,96.39 -519.74,151.95 -360.22,79.69 -581.78,401.81 -859.85,485.81l1.72 55.07 -311.47 218.41c-60.53,316.89 82.69,111.74 -201.92,397.38 -215.47,-104.09 -251.58,101.24 -338.88,301.54 -82.84,190.05 90.26,356.06 34.54,601.86l-180 14.66 56.39 168.15c387.03,175.68 257.82,-182.19 256.8,-237.57 -3.46,-187.45 69.06,-140.63 94.35,-277.42 12.46,-67.35 -23.15,-368.44 -16.59,-437.24 167.59,82.65 381.44,49.24 543.17,-30.54 87.04,-147.08 49.44,-144.01 92.45,-281.34 40.31,-128.72 87.62,-79.12 156.45,-181.87 56.28,-84.02 28.87,-162.82 38.64,-186.35 11.72,-28.21 75.18,-18.83 131.25,-47.62 -80.41,61.55 -60.67,70.44 -8.63,148.06 223.21,-17.97 391.66,-240.17 595.26,-276.64 225.15,-40.32 409.24,-163.08 595.22,-285.66 187.92,-123.86 -55.45,-257.26 442.58,-362.03 235.48,-49.53 515.64,-111.47 655.92,-327.8l-135.09 5.97 -568.85 220.48z"/>
  <path class="fil1" d="M21568.54 6874.22c-354.71,271.05 -952.33,413.25 -1229.46,789.63 155.3,13.83 216.48,86.17 319.58,60.76 101.09,-24.92 237.29,-94.76 333.42,-137.62 204.57,-167.15 403.54,-98.33 648.97,-252.41 136.64,-85.78 99.73,-131.31 269.09,-197.38 77.48,-30.22 206.42,-69.57 265.72,-132.33 262.23,-277.53 376.66,-183.91 515.72,-312.23 139.28,-128.53 95.72,-506.31 -85.21,-624.69 49.09,228.06 93.11,164.01 96.66,435.44 -124.77,113.51 -928.37,324.3 -1134.49,370.83z"/>
  <path class="fil0" d="M14994.85 9957.19l77.2 73.96c799.85,-21.44 521.26,-3.02 686.25,222.51 129.35,14.44 656.68,-117.75 824.12,-213.27 190.98,-108.95 56.71,-4.94 155.18,-178.77 156.77,23.97 137.71,42.6 258.03,-47.28 186.53,-139.35 461.34,-75.14 606.45,-453.26 -114.93,-21.66 -473.7,173.44 -614.21,232.52 -88.34,37.15 -242.93,58.27 -362.5,97.5 -775.54,254.39 -297.87,83.69 -939.35,224.55 -251.29,55.17 -461.34,-157.93 -691.17,41.54z"/>
 </g>
</svg>
